<?xml version="1.0" encoding="UTF-8"?>
<svg width="95px" height="97px" viewBox="0 0 95 97" version="1.1" xmlns="http://www.w3.org/2000/svg" xmlns:xlink="http://www.w3.org/1999/xlink">
    <!-- Generator: Sketch 43.2 (39069) - http://www.bohemiancoding.com/sketch -->
    <title>016-user-1 copy 27</title>
    <desc>Created with Sketch.</desc>
    <defs>
        <ellipse id="path-1" cx="47.1435765" cy="48.0956775" rx="47.1435765" ry="48.0956775"></ellipse>
    </defs>
    <g id="Page-1" stroke="none" stroke-width="1" fill="none" fill-rule="evenodd">
        <g id="016-user-1-copy-27">
            <mask id="mask-2" fill="white">
                <use xlink:href="#path-1"></use>
            </mask>
            <use id="Mask" fill="#58595B" xlink:href="#path-1"></use>
            <g id="014-user-3" mask="url(#mask-2)">
                <g transform="translate(14.109028, 12.431157)" id="Group">
                    <g transform="translate(1.181976, 1.208716)">
                        <polygon id="Shape" fill="#F4661E" fill-rule="nonzero" points="35.6112523 58.0874299 37.2322482 62.2488659 34.6994422 66.5657082 36.3879795 71.7459189 36.4048649 71.7804537 32.1666362 75.1993928 27.9284075 71.7804537 27.9452928 71.7459189 29.6338302 66.6693124 27.1010242 62.2488659 28.72202 58.0874299 32.1666362 58.7953921"></polygon>
                        <path d="M48.2077408,62.2488659 L36.4048649,71.7804537 L36.3879795,71.7459189 L34.6994422,66.5657082 L37.2322482,62.2488659 L35.6112523,58.0874299 L40.6093228,57.0686551 C42.4498285,59.1752742 48.2077408,62.2488659 48.2077408,62.2488659 Z" id="Shape" fill="#808285" fill-rule="nonzero"></path>
                        <path d="M29.6338302,66.6693124 L27.9452928,71.7459189 L27.9284075,71.7804537 L16.1255315,62.2488659 C16.1255315,62.2488659 21.8834438,59.1752742 23.7239495,57.0686551 L28.72202,58.0874299 L27.1010242,62.2488659 L29.6338302,66.6693124 Z" id="Shape" fill="#808285" fill-rule="nonzero"></path>
                        <path d="M64.2488455,76.9261297 L64.2488455,81.242972 L0.0844268666,81.242972 L0.0844268666,76.9261297 C0.0844268666,76.9261297 0.236395226,67.4808787 16.1255315,62.2488659 L27.9284075,71.7804537 L32.1666362,75.1993928 L36.4048649,71.7804537 L48.2077408,62.2488659 C64.1981893,67.4290766 64.2488455,76.9261297 64.2488455,76.9261297 Z" id="Shape" fill="#58595B" fill-rule="nonzero"></path>
                        <path d="M50.7405468,9.58338989 L50.7405468,23.3972852 C50.7405468,23.3972852 40.6093228,16.9220218 40.6093228,10.4467584 C40.6093228,10.4467584 36.4892917,13.0368637 32.1666362,13.0368637 C27.8439806,13.0368637 23.7239495,10.4467584 23.7239495,10.4467584 C23.7239495,16.9220218 13.5927255,23.3972852 13.5927255,23.3972852 L13.5927255,9.58338989 C13.5927255,9.58338989 17.9660372,0.0863368459 32.1666362,0.0863368459 C46.3672351,0.0863368459 50.7405468,9.58338989 50.7405468,9.58338989 Z" id="Shape" fill="#E7ECED" fill-rule="nonzero"></path>
                        <path d="M32.1666362,53.6151813 C35.2566595,53.6151813 38.0596314,52.9072192 40.4911252,51.6467012 C40.5248959,51.6294338 40.5755521,51.6121665 40.6093228,51.5776317 L40.6093228,56.2052867 L40.6093228,57.0686551 L35.6112523,58.0874299 L32.1666362,58.7953921 L28.72202,58.0874299 L23.7239495,57.0686551 L23.7239495,56.2052867 L23.7239495,51.5776317 C23.7577203,51.6121665 23.8083764,51.6294338 23.8421471,51.6467012 C26.2736409,52.9072192 29.0766128,53.6151813 32.1666362,53.6151813 Z" id="Shape" fill="#FFD7A3" fill-rule="nonzero"></path>
                        <path d="M13.5927255,32.8943383 C13.5927255,34.051252 13.6771524,35.1908984 13.8122354,36.29601 C11.1950025,35.9333953 8.52711352,33.3778246 8.52711352,31.1676014 C8.52711352,28.7847044 10.7897535,27.7141275 13.5927255,27.7141275 L13.5927255,32.8943383 Z" id="Shape" fill="#FFD7A3" fill-rule="nonzero"></path>
                        <path d="M50.7405468,27.7141275 C53.5435188,27.7141275 55.8061588,28.7847044 55.8061588,31.1676014 C55.8061588,33.3778246 53.1382698,35.9333953 50.521037,36.29601 C50.6561199,35.1908984 50.7405468,34.051252 50.7405468,32.8943383 L50.7405468,27.7141275 Z" id="Shape" fill="#FFD7A3" fill-rule="nonzero"></path>
                        <path d="M13.8122354,36.29601 C13.6771524,35.1908984 13.5927255,34.051252 13.5927255,32.8943383 L13.5927255,27.7141275 L13.5927255,23.3972852 C13.5927255,23.3972852 23.7239495,16.9220218 23.7239495,10.4467584 C23.7239495,10.4467584 27.8439806,13.0368637 32.1666362,13.0368637 C36.4892917,13.0368637 40.6093228,10.4467584 40.6093228,10.4467584 C40.6093228,16.9220218 50.7405468,23.3972852 50.7405468,23.3972852 L50.7405468,27.7141275 L50.7405468,32.8943383 C50.7405468,34.051252 50.6561199,35.1908984 50.521037,36.29601 L50.521037,36.3132774 C49.6092268,43.0648187 46.0295276,48.7112485 40.6093228,51.5776317 C40.5755521,51.6121665 40.5248959,51.6294338 40.4911252,51.6467012 C38.0596314,52.9072192 35.2566595,53.6151813 32.1666362,53.6151813 C29.0766128,53.6151813 26.2736409,52.9072192 23.8421471,51.6467012 C23.8083764,51.6294338 23.7577203,51.6121665 23.7239495,51.5776317 C18.3037447,48.7112485 14.7240455,43.0648187 13.8122354,36.3132774 L13.8122354,36.29601 L13.8122354,36.29601 Z" id="Shape" fill="#FFE1B2" fill-rule="nonzero"></path>
                    </g>
                    <g>
                        <path d="M49.8793928,62.2578449 C48.3713601,61.4455879 44.6579288,59.2940737 43.0577019,57.7501982 L43.0577019,53.5545728 C48.1938948,50.552468 51.7035196,45.1693657 52.8211625,38.5823824 C55.7264598,37.730065 58.2545379,34.9415576 58.2545379,32.3763172 C58.2545379,29.7787869 56.3451399,28.0549854 53.1889259,27.6978962 L53.1889259,10.5023593 L53.0681955,10.2402406 C53.0185525,10.1323196 51.8161451,7.56863326 48.7575286,5.03689159 C45.9814043,2.73912277 41.054759,0 33.3486123,0 C25.6424656,0 20.7158202,2.73912277 17.939696,5.03689159 C14.8810795,7.56863326 13.6786721,10.1323196 13.6290291,10.2402406 L13.5082986,10.5023593 L13.5082986,27.6977235 C10.3520847,28.0548127 8.44268666,29.7786142 8.44268666,32.3761445 C8.44268666,34.9413849 10.9707647,37.7298923 13.8760621,38.582037 C14.9937049,45.1688477 18.5034986,50.5521227 23.6395226,53.5542275 L23.6395226,57.7498528 C22.0382827,59.2947644 18.3213055,61.4478326 16.8151302,62.2590536 C0.354761693,67.7200318 0.00692300306,77.6907288 0.000168853733,78.1132613 L0,83.7467405 L66.6972246,83.7467405 L66.6972246,78.1277659 C66.6948606,77.7024706 66.4513735,67.6690931 49.8793928,62.2578449 Z M47.1024243,63.6546024 L38.2132883,70.8331658 L37.267032,67.930003 L39.8228021,63.5739638 L38.5327596,60.2620824 L41.3745679,59.6827622 C42.8640267,61.0935062 45.3995344,62.6672542 47.1024243,63.6546024 Z M29.6885388,63.34897 L30.6888283,60.7809668 L33.3486123,61.3250616 L36.0036684,60.7794128 L37.0056464,63.3411997 L34.4958046,67.618845 L36.0997462,72.5393545 L33.3486123,74.7585568 L30.6018686,72.542808 L32.2012512,67.7341911 L29.6885388,63.34897 Z M26.1723286,54.7916072 C28.4044061,55.6720703 30.8097276,56.1189498 33.3486123,56.1189498 C35.8885101,56.1189498 38.2950135,55.671725 40.5248959,54.7919525 L40.5248959,57.2156004 L33.3486123,58.6831542 L26.1723286,57.2156004 L26.1723286,54.7916072 Z M55.7217319,32.3763172 C55.7217319,33.4349796 54.6010497,34.8764596 53.1406338,35.6711039 C53.1718717,35.1384056 53.1889259,30.3011248 53.1889259,30.3011248 C55.4459938,30.6247153 55.7217319,31.8182358 55.7217319,32.3763172 Z M19.6400531,6.9625486 C23.2033734,4.06128523 27.8156132,2.59010538 33.3486123,2.59010538 C38.8816114,2.59010538 43.4938511,4.06128523 47.0571715,6.9625486 C49.2115762,8.71656796 50.3125026,10.4954523 50.6561199,11.1148329 L50.6561199,22.1203633 C49.7944593,21.4588504 48.7399678,20.5916831 47.6939189,19.5860315 C44.6607993,16.6704362 43.0577019,13.9282053 43.0577019,11.6554742 L43.0577019,9.33905662 L41.1280415,10.5520893 C41.0898805,10.5762636 37.2677074,12.9505269 33.3486123,12.9505269 C29.4502862,12.9505269 25.6061621,10.5754003 25.5691831,10.552262 L23.6395226,9.33905662 L23.6395226,11.6554742 C23.6395226,13.9282053 22.0364253,16.6704362 19.0033057,19.5860315 C17.9572568,20.5916831 16.9027652,21.4588504 16.0411046,22.1203633 L16.0411046,11.1151782 C16.3872548,10.4913082 17.4880123,8.71466855 19.6400531,6.9625486 Z M10.9754927,32.3763172 C10.9754927,31.8182358 11.2512308,30.6247153 13.5082986,30.3011248 C13.5082986,30.3011248 13.5255217,35.1384056 13.5565908,35.6711039 C12.0961749,34.8764596 10.9754927,33.4349796 10.9754927,32.3763172 Z M16.2606145,37.4316849 L16.250821,37.3441393 C16.1096593,36.1892977 16.0411046,35.1292539 16.0411046,34.1030541 L16.0411046,25.3058476 C18.0685314,23.908054 24.5373179,19.0901127 25.913307,13.6557262 C27.61721,14.4695374 30.4168049,15.5406323 33.3486123,15.5406323 C36.2804197,15.5406323 39.0800146,14.4695374 40.7839176,13.6557262 C42.1599066,19.0901127 48.6286932,23.908054 50.6561199,25.3058476 L50.6561199,34.1030541 C50.6561199,35.1292539 50.5875653,36.1894703 50.4464036,37.3441393 L50.440156,37.4059565 C49.5577264,43.8147406 46.1958486,48.9990955 41.209429,51.6359954 L41.0355096,51.7280305 L41.0243653,51.739427 C38.7034707,52.926904 36.1215283,53.5288445 33.3486123,53.5288445 C30.5780602,53.5288445 27.9981441,52.92794 25.6728593,51.739427 L25.4876267,51.6359954 C20.5081302,49.0027216 17.1484474,43.8285545 16.2606145,37.4316849 Z M25.3223189,59.6832802 L28.1686863,60.2655359 L26.8776307,63.5663662 L29.4305303,68.0218654 L28.4930543,70.8405908 L19.5949692,63.6547751 C21.2975214,62.6674269 23.8326913,61.0936789 25.3223189,59.6832802 Z M64.1644186,81.1566351 L2.532806,81.1566351 L2.532806,78.1503862 C2.54209295,77.892757 2.98820452,69.7727767 17.057773,64.905796 L33.3486123,78.0574877 L38.3716731,74.0053542 L49.6419844,64.9037239 C53.8602884,66.3438225 59.2438519,68.9297837 62.2447205,73.2972194 C64.0544948,75.9311839 64.1601972,78.0384936 64.1644186,78.1486594 L64.1644186,81.1566351 L64.1644186,81.1566351 Z" id="Shape" fill="#231F20" fill-rule="nonzero"></path>
                        <path d="M30.866969,41.9256904 C31.6604127,41.1142967 32.1845347,40.5783176 33.3486123,40.5783176 C34.5126899,40.5783176 35.0368119,41.1142967 35.8302556,41.9256904 C36.7478068,42.8639992 37.8897646,44.0317914 40.1027616,44.0317914 L40.9470303,44.0317914 L40.9470303,41.441686 L40.1027616,41.441686 C38.938684,41.441686 38.414562,40.9057069 37.6211183,40.0943132 C36.8977489,39.3545791 36.0323735,38.4744613 34.6150153,38.1342941 L34.6150153,32.3763172 L32.0822093,32.3763172 L32.0822093,38.1341215 C30.6648511,38.4744613 29.7994757,39.3544064 29.0761063,40.0941405 C28.2826626,40.9055342 27.7585406,41.4415134 26.594463,41.4415134 L25.7501943,41.4415134 L25.7501943,44.0316187 L26.594463,44.0316187 C28.80746,44.0317914 29.9494178,42.8639992 30.866969,41.9256904 Z" id="Shape" fill="#231F20" fill-rule="nonzero"></path>
                    </g>
                </g>
            </g>
        </g>
    </g>
</svg>